# xmcd
#
# Track frame offsets: 
#        150
#        33708
#        44217
#        57332
#        68695
#        83716
#        95321
#        109455
#        121867
#        134534
#
# Disc length: 1983 seconds
#
# Revision: 0
# Processed by: cddbd v1.5.2PL0 Copyright (c) Steve Scherf et al.
# Submitted via: ExactAudioCopy v0.95b4
#
DISCID=9007bd0a
DTITLE=Little Beaver - Katie Pearl
DYEAR=2006
DGENRE=Soul
TTITLE0=Katie Pearl
TTITLE1=Everybody Has Some Dues To Pay
TTITLE2=Do Right Man
TTITLE3=Funkadelic Sound
TTITLE4=Does Anybody Care
TTITLE5=Momma Forgot To Tell Me
TTITLE6=That's How It Is
TTITLE7=I'm A Man Just Like You
TTITLE8=Don't Let It End This Way
TTITLE9=Miami Girl
EXTD=
EXTT0=
EXTT1=
EXTT2=
EXTT3=
EXTT4=
EXTT5=
EXTT6=
EXTT7=
EXTT8=
EXTT9=
PLAYORDER=
